<svg width="203" height="121" viewBox="0 0 203 121" fill="none" xmlns="http://www.w3.org/2000/svg">
<g opacity="0.1">
<circle cx="6.46154" cy="6.46154" r="6.46154" fill="white"/>
<circle cx="23.6925" cy="6.46154" r="6.46154" fill="white"/>
<circle cx="40.923" cy="6.46154" r="6.46154" fill="white"/>
<circle cx="58.1539" cy="6.46154" r="6.46154" fill="white"/>
<circle cx="75.3844" cy="6.46154" r="6.46154" fill="white"/>
<circle cx="92.6153" cy="6.46154" r="6.46154" fill="white"/>
<circle cx="109.846" cy="6.46154" r="6.46154" fill="white"/>
<circle cx="127.077" cy="6.46154" r="6.46154" fill="white"/>
<circle cx="144.308" cy="6.46154" r="6.46154" fill="white"/>
<circle cx="161.539" cy="6.46154" r="6.46154" fill="white"/>
<circle cx="178.769" cy="6.46154" r="6.46154" fill="white"/>
<circle cx="196" cy="6.46154" r="6.46154" fill="white"/>
<circle cx="6.46154" cy="23.6923" r="6.46154" fill="white"/>
<circle cx="23.6925" cy="23.6923" r="6.46154" fill="white"/>
<circle cx="40.923" cy="23.6923" r="6.46154" fill="white"/>
<circle cx="58.1539" cy="23.6923" r="6.46154" fill="white"/>
<circle cx="75.3844" cy="23.6923" r="6.46154" fill="white"/>
<circle cx="92.6153" cy="23.6923" r="6.46154" fill="white"/>
<circle cx="109.846" cy="23.6923" r="6.46154" fill="white"/>
<circle cx="127.077" cy="23.6923" r="6.46154" fill="white"/>
<circle cx="144.308" cy="23.6923" r="6.46154" fill="white"/>
<circle cx="161.539" cy="23.6923" r="6.46154" fill="white"/>
<circle cx="178.769" cy="23.6923" r="6.46154" fill="white"/>
<circle cx="196" cy="23.6923" r="6.46154" fill="white"/>
<circle cx="6.46154" cy="40.9231" r="6.46154" fill="white"/>
<circle cx="23.6925" cy="40.9231" r="6.46154" fill="white"/>
<circle cx="40.923" cy="40.9231" r="6.46154" fill="white"/>
<circle cx="58.1539" cy="40.9231" r="6.46154" fill="white"/>
<circle cx="75.3844" cy="40.9231" r="6.46154" fill="white"/>
<circle cx="92.6153" cy="40.9231" r="6.46154" fill="white"/>
<circle cx="109.846" cy="40.9231" r="6.46154" fill="white"/>
<circle cx="127.077" cy="40.9231" r="6.46154" fill="white"/>
<circle cx="144.308" cy="40.9231" r="6.46154" fill="white"/>
<circle cx="161.539" cy="40.9231" r="6.46154" fill="white"/>
<circle cx="178.769" cy="40.9231" r="6.46154" fill="white"/>
<circle cx="196" cy="40.9231" r="6.46154" fill="white"/>
<circle cx="6.46154" cy="58.1539" r="6.46154" fill="white"/>
<circle cx="23.6925" cy="58.1538" r="6.46154" fill="white"/>
<circle cx="40.923" cy="58.1538" r="6.46154" fill="white"/>
<circle cx="58.1539" cy="58.1538" r="6.46154" fill="white"/>
<circle cx="75.3844" cy="58.1538" r="6.46154" fill="white"/>
<circle cx="92.6153" cy="58.1538" r="6.46154" fill="white"/>
<circle cx="109.846" cy="58.1538" r="6.46154" fill="white"/>
<circle cx="127.077" cy="58.1538" r="6.46154" fill="white"/>
<circle cx="144.308" cy="58.1538" r="6.46154" fill="white"/>
<circle cx="161.539" cy="58.1538" r="6.46154" fill="white"/>
<circle cx="178.769" cy="58.1538" r="6.46154" fill="white"/>
<circle cx="196" cy="58.1538" r="6.46154" fill="white"/>
<circle cx="6.46154" cy="75.3846" r="6.46154" fill="white"/>
<circle cx="23.6925" cy="75.3846" r="6.46154" fill="white"/>
<circle cx="40.923" cy="75.3846" r="6.46154" fill="white"/>
<circle cx="58.1539" cy="75.3846" r="6.46154" fill="white"/>
<circle cx="75.3844" cy="75.3846" r="6.46154" fill="white"/>
<circle cx="92.6153" cy="75.3846" r="6.46154" fill="white"/>
<circle cx="109.846" cy="75.3846" r="6.46154" fill="white"/>
<circle cx="127.077" cy="75.3846" r="6.46154" fill="white"/>
<circle cx="144.308" cy="75.3846" r="6.46154" fill="white"/>
<circle cx="161.539" cy="75.3846" r="6.46154" fill="white"/>
<circle cx="178.769" cy="75.3846" r="6.46154" fill="white"/>
<circle cx="196" cy="75.3846" r="6.46154" fill="white"/>
<circle cx="6.46154" cy="92.6154" r="6.46154" fill="white"/>
<circle cx="23.6925" cy="92.6154" r="6.46154" fill="white"/>
<circle cx="40.923" cy="92.6154" r="6.46154" fill="white"/>
<circle cx="58.1539" cy="92.6154" r="6.46154" fill="white"/>
<circle cx="75.3844" cy="92.6154" r="6.46154" fill="white"/>
<circle cx="92.6153" cy="92.6154" r="6.46154" fill="white"/>
<circle cx="109.846" cy="92.6154" r="6.46154" fill="white"/>
<circle cx="127.077" cy="92.6153" r="6.46154" fill="white"/>
<circle cx="144.308" cy="92.6153" r="6.46154" fill="white"/>
<circle cx="161.539" cy="92.6153" r="6.46154" fill="white"/>
<circle cx="178.769" cy="92.6153" r="6.46154" fill="white"/>
<circle cx="196" cy="92.6153" r="6.46154" fill="white"/>
<circle cx="6.46154" cy="109.846" r="6.46154" fill="white"/>
<circle cx="23.6925" cy="109.846" r="6.46154" fill="white"/>
<circle cx="40.923" cy="109.846" r="6.46154" fill="white"/>
<circle cx="58.1539" cy="109.846" r="6.46154" fill="white"/>
<circle cx="75.3844" cy="109.846" r="6.46154" fill="white"/>
<circle cx="92.6153" cy="109.846" r="6.46154" fill="white"/>
<circle cx="109.846" cy="109.846" r="6.46154" fill="white"/>
<circle cx="127.077" cy="109.846" r="6.46154" fill="white"/>
<circle cx="144.308" cy="109.846" r="6.46154" fill="white"/>
<circle cx="161.539" cy="109.846" r="6.46154" fill="white"/>
<circle cx="178.769" cy="109.846" r="6.46154" fill="white"/>
<circle cx="196" cy="109.846" r="6.46154" fill="white"/>
<circle cx="6.46154" cy="127.077" r="6.46154" fill="white"/>
<circle cx="23.6925" cy="127.077" r="6.46154" fill="white"/>
<circle cx="40.923" cy="127.077" r="6.46154" fill="white"/>
<circle cx="58.1539" cy="127.077" r="6.46154" fill="white"/>
<circle cx="75.3844" cy="127.077" r="6.46154" fill="white"/>
<circle cx="92.6153" cy="127.077" r="6.46154" fill="white"/>
<circle cx="109.846" cy="127.077" r="6.46154" fill="white"/>
<circle cx="127.077" cy="127.077" r="6.46154" fill="white"/>
<circle cx="144.308" cy="127.077" r="6.46154" fill="white"/>
<circle cx="161.539" cy="127.077" r="6.46154" fill="white"/>
<circle cx="178.769" cy="127.077" r="6.46154" fill="white"/>
<circle cx="196" cy="127.077" r="6.46154" fill="white"/>
</g>
</svg>
