<svg width="512" height="512" version="1.1" xmlns="http://www.w3.org/2000/svg" desc="Created with imagetracer.js version 1.2.6" ><path fill="rgb(0,0,0)" stroke="rgb(0,0,0)" stroke-width="1" opacity="0.9764705882352941" d="M 250.5 43 L 273.5 43 L 274.5 44 L 290.5 45 L 309.5 49 L 336.5 58 Q 383.5 78 415 113.5 Q 441.8 142.7 457 183.5 L 463 202.5 L 468 228.5 L 468 237.5 L 469 238.5 L 469 273.5 L 468 274.5 L 468 282.5 L 463 309.5 L 450 345.5 Q 430.5 386.5 398.5 415 Q 369.3 441.8 328.5 457 L 305.5 464 L 283.5 468 L 274.5 468 L 273.5 469 L 238.5 469 L 237.5 468 L 221.5 467 L 202.5 463 L 166.5 450 Q 125.5 430.5 97 398.5 Q 70.2 369.3 55 328.5 L 49 309.5 L 44 283.5 L 44 274.5 L 43 273.5 L 43 237.5 L 44 236.5 L 44 228.5 L 48 206.5 L 56 180.5 L 69 152.5 L 75 142.5 L 80.5 137 Q 86 132 98.5 134 L 109 140.5 L 114 150.5 L 114 159.5 L 98 190.5 L 90 214.5 L 86 236.5 L 85 261.5 L 86 262.5 L 86 275.5 L 87 276.5 L 88 288.5 L 98 321.5 Q 112.9 356.1 138.5 380 Q 162.2 402.8 195.5 416 L 223.5 424 L 235.5 425 L 236.5 426 L 261.5 427 L 262.5 426 L 275.5 426 L 276.5 425 L 288.5 424 L 321.5 414 Q 356.8 398.8 381 372.5 Q 403.1 349.1 416 316.5 L 424 288.5 L 425 276.5 L 426 275.5 L 427 250.5 L 426 249.5 L 426 236.5 L 425 235.5 L 424 223.5 L 414 190.5 Q 398.5 154.5 371.5 130 Q 348.4 108.6 316.5 96 L 288.5 88 L 276.5 87 L 275.5 86 L 250.5 85 L 240 78.5 Q 233 73 235 58.5 L 241.5 48 L 250.5 43 Z " /><path fill="rgb(0,0,0)" stroke="rgb(0,0,0)" stroke-width="1" opacity="0" d="M 0 0 L 512 0 L 512 512 L 0 512 L 0 0 Z M 251 43 L 242 48 L 235 59 Q 233 73 240 79 L 251 85 L 276 86 L 277 87 L 289 88 L 317 96 Q 348 109 372 130 Q 398 155 414 191 L 424 224 L 425 236 L 426 237 L 426 250 L 427 251 L 426 276 L 425 277 L 424 289 L 416 317 Q 403 349 381 373 Q 357 399 322 414 L 289 424 L 277 425 L 276 426 L 263 426 L 262 427 L 237 426 L 236 425 L 224 424 L 196 416 Q 162 403 139 380 Q 113 356 98 322 L 88 289 L 87 277 L 86 276 L 86 263 L 85 262 L 86 237 L 90 215 L 98 191 L 114 160 L 114 151 L 109 141 L 99 134 Q 86 132 81 137 L 75 143 L 69 153 L 56 181 L 48 207 L 44 229 L 44 237 L 43 238 L 43 274 L 44 275 L 44 284 L 49 310 L 55 329 Q 70 369 97 399 Q 126 430 167 450 L 203 463 L 222 467 L 238 468 L 239 469 L 274 469 L 275 468 L 284 468 L 306 464 L 329 457 Q 369 442 399 415 Q 430 386 450 346 L 463 310 L 468 283 L 468 275 L 469 274 L 469 239 L 468 238 L 468 229 L 463 203 L 457 184 Q 442 143 415 114 Q 384 78 337 58 L 310 49 L 291 45 L 275 44 L 274 43 L 251 43 Z " /></svg>