<?xml version="1.0" encoding="utf-8"?>
<!-- Generator: Adobe Illustrator 25.0.0, SVG Export Plug-In . SVG Version: 6.00 Build 0)  -->
<svg version="1.1" id="Layer_1" xmlns="http://www.w3.org/2000/svg" xmlns:xlink="http://www.w3.org/1999/xlink" x="0px" y="0px"
	 viewBox="0 0 102 102" style="enable-background:new 0 0 102 102;" xml:space="preserve">
<style type="text/css">
	.st0{fill:none;stroke:#DD292F;stroke-width:4;}
	.st1{clip-path:url(#SVGID_2_);}
	.st2{fill:#DD292F;}
</style>
<circle class="st0" cx="51" cy="51" r="49"/>
<g>
	<defs>
		<rect id="SVGID_1_" x="22.7" y="22.7" width="56.6" height="56.6"/>
	</defs>
	<clipPath id="SVGID_2_">
		<use xlink:href="#SVGID_1_"  style="overflow:visible;"/>
	</clipPath>
	<g class="st1">
		<path class="st2" d="M72.2,32.1h-7.3c-0.5-2.7-2-5.1-4.1-6.8s-4.7-2.7-7.5-2.7h-4.7c-2.7,0-5.4,0.9-7.5,2.7
			c-2.1,1.7-3.6,4.1-4.1,6.8h-7.3c-0.6,0-1.2,0.2-1.7,0.7c-0.4,0.4-0.7,1-0.7,1.7c0,0.6,0.2,1.2,0.7,1.7c0.4,0.4,1,0.7,1.7,0.7h2.4
			v30.7c0,3.1,1.2,6.1,3.5,8.3c2.2,2.2,5.2,3.5,8.3,3.5h14.2c3.1,0,6.1-1.2,8.3-3.5c2.2-2.2,3.5-5.2,3.5-8.3V36.8h2.4
			c0.6,0,1.2-0.2,1.7-0.7c0.4-0.4,0.7-1,0.7-1.7c0-0.6-0.2-1.2-0.7-1.7C73.5,32.4,72.9,32.1,72.2,32.1z M48.6,27.4h4.7
			c1.5,0,2.9,0.5,4.1,1.3c1.2,0.8,2.1,2,2.6,3.4H42c0.5-1.4,1.4-2.6,2.6-3.4C45.7,27.9,47.2,27.4,48.6,27.4z M65.2,67.5
			c0,1.9-0.7,3.7-2.1,5c-1.3,1.3-3.1,2.1-5,2.1H43.9c-1.9,0-3.7-0.7-5-2.1s-2.1-3.1-2.1-5V36.8h28.3V67.5z"/>
		<path class="st2" d="M46.3,65.2c0.6,0,1.2-0.2,1.7-0.7c0.4-0.4,0.7-1,0.7-1.7V48.6c0-0.6-0.2-1.2-0.7-1.7c-0.4-0.4-1-0.7-1.7-0.7
			c-0.6,0-1.2,0.2-1.7,0.7c-0.4,0.4-0.7,1-0.7,1.7v14.2c0,0.6,0.2,1.2,0.7,1.7C45.1,64.9,45.7,65.2,46.3,65.2z"/>
		<path class="st2" d="M55.7,65.2c0.6,0,1.2-0.2,1.7-0.7c0.4-0.4,0.7-1,0.7-1.7V48.6c0-0.6-0.2-1.2-0.7-1.7c-0.4-0.4-1-0.7-1.7-0.7
			s-1.2,0.2-1.7,0.7c-0.4,0.4-0.7,1-0.7,1.7v14.2c0,0.6,0.2,1.2,0.7,1.7C54.5,64.9,55.1,65.2,55.7,65.2z"/>
	</g>
</g>
</svg>
